<svg width="26" height="29" viewBox="0 0 26 29" fill="none" xmlns="http://www.w3.org/2000/svg">
<path d="M16.6251 22.4162L12.6251 28.4162C12.5147 28.582 12.343 28.6971 12.1477 28.7363C11.9524 28.7754 11.7496 28.7354 11.5838 28.625C11.4181 28.5146 11.303 28.3429 11.2638 28.1476C11.2247 27.9523 11.2647 27.7495 11.3751 27.5837L15.3751 21.5837C15.4855 21.418 15.6572 21.3029 15.8525 21.2637C16.0477 21.2246 16.2506 21.2646 16.4163 21.375C16.5821 21.4854 16.6972 21.6571 16.7364 21.8524C16.7755 22.0477 16.7355 22.2505 16.6251 22.4162ZM25.7501 9.49999C25.7471 11.9523 24.7716 14.3034 23.0375 16.0374C21.3035 17.7715 18.9524 18.747 16.5001 18.75H13.4013L9.62508 24.4162C9.57042 24.4983 9.50012 24.5688 9.41821 24.6237C9.3363 24.6786 9.24438 24.7169 9.14769 24.7363C9.051 24.7557 8.95144 24.7558 8.85469 24.7367C8.75794 24.7176 8.6659 24.6797 8.58383 24.625C8.50175 24.5703 8.43125 24.5 8.37634 24.4181C8.32143 24.3362 8.28319 24.2443 8.2638 24.1476C8.24442 24.0509 8.24427 23.9514 8.26336 23.8546C8.28245 23.7579 8.32042 23.6658 8.37508 23.5837L11.5988 18.75H6.50008C5.62797 18.7456 4.76644 18.5587 3.97088 18.2013C3.17533 17.844 2.46337 17.3241 1.88079 16.6751C1.2982 16.0261 0.857888 15.2624 0.588162 14.4331C0.318436 13.6037 0.225268 12.7271 0.31465 11.8595C0.404031 10.992 0.673984 10.1528 1.10715 9.39583C1.54031 8.63889 2.1271 7.98098 2.82977 7.46441C3.53244 6.94784 4.33545 6.58404 5.18715 6.39642C6.03885 6.2088 6.92039 6.2015 7.77508 6.37499C8.51193 4.32327 9.94904 2.59731 11.8334 1.501C13.7177 0.404696 15.9284 0.00835082 18.0762 0.381753C20.224 0.755155 22.1712 1.87436 23.5749 3.5423C24.9787 5.21025 25.7489 7.31997 25.7501 9.49999ZM24.2501 9.49999C24.2435 7.48648 23.4543 5.55441 22.0493 4.11213C20.6443 2.66984 18.7335 1.83037 16.7209 1.77112C14.7082 1.71188 12.7514 2.43751 11.264 3.79466C9.77653 5.1518 8.87506 7.0341 8.75008 9.04374C8.73847 9.24266 8.64833 9.42881 8.49947 9.56126C8.35062 9.69371 8.15524 9.7616 7.95633 9.74999C7.75742 9.73839 7.57126 9.64825 7.43881 9.49939C7.30636 9.35053 7.23847 9.15516 7.25008 8.95624C7.27219 8.57891 7.31686 8.20324 7.38383 7.83124C6.73469 7.70962 6.06732 7.7247 5.42434 7.87552C4.78136 8.02634 4.17689 8.30959 3.64954 8.70717C3.12219 9.10476 2.68354 9.60795 2.36161 10.1846C2.03968 10.7613 1.84154 11.3987 1.77985 12.0563C1.71815 12.7138 1.79425 13.377 2.00329 14.0035C2.21233 14.63 2.54972 15.206 2.99391 15.6947C3.4381 16.1834 3.97932 16.5742 4.58303 16.842C5.18673 17.1098 5.83964 17.2487 6.50008 17.25H16.5001C18.5548 17.2477 20.5247 16.4304 21.9776 14.9775C23.4305 13.5246 24.2478 11.5547 24.2501 9.49999Z" fill="#3B3B55"/>
</svg>
