<svg width="26" height="26" viewBox="0 0 26 26" fill="none" xmlns="http://www.w3.org/2000/svg">
<path d="M12.25 2V1C12.25 0.801088 12.329 0.610322 12.4697 0.46967C12.6103 0.329018 12.8011 0.25 13 0.25C13.1989 0.25 13.3897 0.329018 13.5303 0.46967C13.671 0.610322 13.75 0.801088 13.75 1V2C13.75 2.19891 13.671 2.38968 13.5303 2.53033C13.3897 2.67098 13.1989 2.75 13 2.75C12.8011 2.75 12.6103 2.67098 12.4697 2.53033C12.329 2.38968 12.25 2.19891 12.25 2ZM20.75 13C20.75 14.5328 20.2955 16.0312 19.4439 17.3057C18.5923 18.5802 17.3819 19.5735 15.9658 20.1601C14.5497 20.7466 12.9914 20.9001 11.4881 20.6011C9.9847 20.302 8.60378 19.5639 7.51992 18.4801C6.43607 17.3962 5.69795 16.0153 5.39891 14.5119C5.09988 13.0086 5.25335 11.4503 5.83993 10.0342C6.42651 8.61808 7.41985 7.40769 8.69433 6.55611C9.96881 5.70453 11.4672 5.25 13 5.25C15.0547 5.25232 17.0246 6.06957 18.4775 7.52248C19.9304 8.97539 20.7477 10.9453 20.75 13ZM19.25 13C19.25 11.7639 18.8834 10.5555 18.1967 9.52769C17.5099 8.49988 16.5338 7.6988 15.3918 7.22575C14.2497 6.75271 12.9931 6.62893 11.7807 6.87009C10.5683 7.11125 9.45466 7.7065 8.58058 8.58058C7.7065 9.45466 7.11125 10.5683 6.87009 11.7807C6.62893 12.9931 6.75271 14.2497 7.22575 15.3918C7.6988 16.5338 8.49988 17.5099 9.52769 18.1967C10.5555 18.8834 11.7639 19.25 13 19.25C14.657 19.248 16.2456 18.5889 17.4172 17.4172C18.5889 16.2456 19.248 14.657 19.25 13ZM4.47 5.53C4.53866 5.60369 4.62146 5.66279 4.71346 5.70378C4.80546 5.74477 4.90478 5.76682 5.00548 5.76859C5.10618 5.77037 5.20621 5.75184 5.2996 5.71412C5.39299 5.6764 5.47782 5.62026 5.54904 5.54904C5.62026 5.47782 5.6764 5.39299 5.71412 5.2996C5.75184 5.20621 5.77037 5.10618 5.76859 5.00548C5.76682 4.90478 5.74477 4.80546 5.70378 4.71346C5.66279 4.62146 5.60369 4.53866 5.53 4.47L4.53 3.47C4.38783 3.33752 4.19978 3.2654 4.00548 3.26883C3.81118 3.27225 3.62579 3.35097 3.48838 3.48838C3.35097 3.62579 3.27225 3.81118 3.26883 4.00548C3.2654 4.19978 3.33752 4.38783 3.47 4.53L4.47 5.53ZM4.47 20.47L3.47 21.47C3.39631 21.5387 3.33721 21.6215 3.29622 21.7135C3.25523 21.8055 3.23319 21.9048 3.23141 22.0055C3.22963 22.1062 3.24816 22.2062 3.28588 22.2996C3.3236 22.393 3.37974 22.4778 3.45096 22.549C3.52218 22.6203 3.60701 22.6764 3.7004 22.7141C3.79379 22.7518 3.89382 22.7704 3.99452 22.7686C4.09523 22.7668 4.19454 22.7448 4.28654 22.7038C4.37854 22.6628 4.46134 22.6037 4.53 22.53L5.53 21.53C5.60369 21.4613 5.66279 21.3785 5.70378 21.2865C5.74477 21.1945 5.76682 21.0952 5.76859 20.9945C5.77037 20.8938 5.75184 20.7938 5.71412 20.7004C5.6764 20.607 5.62026 20.5222 5.54904 20.451C5.47782 20.3797 5.39299 20.3236 5.2996 20.2859C5.20621 20.2482 5.10618 20.2296 5.00548 20.2314C4.90478 20.2332 4.80546 20.2552 4.71346 20.2962C4.62146 20.3372 4.53866 20.3963 4.47 20.47ZM21.47 3.47L20.47 4.47C20.3963 4.53866 20.3372 4.62146 20.2962 4.71346C20.2552 4.80546 20.2332 4.90478 20.2314 5.00548C20.2296 5.10618 20.2482 5.20621 20.2859 5.2996C20.3236 5.39299 20.3797 5.47782 20.451 5.54904C20.5222 5.62026 20.607 5.6764 20.7004 5.71412C20.7938 5.75184 20.8938 5.77037 20.9945 5.76859C21.0952 5.76682 21.1945 5.74477 21.2865 5.70378C21.3785 5.66279 21.4613 5.60369 21.53 5.53L22.53 4.53C22.6625 4.38783 22.7346 4.19978 22.7312 4.00548C22.7277 3.81118 22.649 3.62579 22.5116 3.48838C22.3742 3.35097 22.1888 3.27225 21.9945 3.26883C21.8002 3.2654 21.6122 3.33752 21.47 3.47ZM21.53 20.47C21.3878 20.3375 21.1998 20.2654 21.0055 20.2688C20.8112 20.2723 20.6258 20.351 20.4884 20.4884C20.351 20.6258 20.2723 20.8112 20.2688 21.0055C20.2654 21.1998 20.3375 21.3878 20.47 21.53L21.47 22.53C21.6122 22.6625 21.8002 22.7346 21.9945 22.7312C22.1888 22.7277 22.3742 22.649 22.5116 22.5116C22.649 22.3742 22.7277 22.1888 22.7312 21.9945C22.7346 21.8002 22.6625 21.6122 22.53 21.47L21.53 20.47ZM2 12.25H1C0.801088 12.25 0.610322 12.329 0.46967 12.4697C0.329018 12.6103 0.25 12.8011 0.25 13C0.25 13.1989 0.329018 13.3897 0.46967 13.5303C0.610322 13.671 0.801088 13.75 1 13.75H2C2.19891 13.75 2.38968 13.671 2.53033 13.5303C2.67098 13.3897 2.75 13.1989 2.75 13C2.75 12.8011 2.67098 12.6103 2.53033 12.4697C2.38968 12.329 2.19891 12.25 2 12.25ZM13 23.25C12.8011 23.25 12.6103 23.329 12.4697 23.4697C12.329 23.6103 12.25 23.8011 12.25 24V25C12.25 25.1989 12.329 25.3897 12.4697 25.5303C12.6103 25.671 12.8011 25.75 13 25.75C13.1989 25.75 13.3897 25.671 13.5303 25.5303C13.671 25.3897 13.75 25.1989 13.75 25V24C13.75 23.8011 13.671 23.6103 13.5303 23.4697C13.3897 23.329 13.1989 23.25 13 23.25ZM25 12.25H24C23.8011 12.25 23.6103 12.329 23.4697 12.4697C23.329 12.6103 23.25 12.8011 23.25 13C23.25 13.1989 23.329 13.3897 23.4697 13.5303C23.6103 13.671 23.8011 13.75 24 13.75H25C25.1989 13.75 25.3897 13.671 25.5303 13.5303C25.671 13.3897 25.75 13.1989 25.75 13C25.75 12.8011 25.671 12.6103 25.5303 12.4697C25.3897 12.329 25.1989 12.25 25 12.25Z" fill="#3B3B55"/>
</svg>
