<svg width="16" height="30" viewBox="0 0 16 30" fill="none" xmlns="http://www.w3.org/2000/svg">
<path d="M8.75 18.325V10C8.75 9.80109 8.67098 9.61032 8.53033 9.46967C8.38968 9.32902 8.19891 9.25 8 9.25C7.80109 9.25 7.61032 9.32902 7.46967 9.46967C7.32902 9.61032 7.25 9.80109 7.25 10V18.325C6.33947 18.5109 5.53038 19.0282 4.9796 19.7767C4.42882 20.5252 4.17559 21.4515 4.26899 22.3761C4.36239 23.3007 4.79578 24.1577 5.48514 24.781C6.17449 25.4042 7.07069 25.7492 8 25.7492C8.92931 25.7492 9.82551 25.4042 10.5149 24.781C11.2042 24.1577 11.6376 23.3007 11.731 22.3761C11.8244 21.4515 11.5712 20.5252 11.0204 19.7767C10.4696 19.0282 9.66053 18.5109 8.75 18.325ZM8 24.25C7.55499 24.25 7.11998 24.118 6.74997 23.8708C6.37996 23.6236 6.09157 23.2722 5.92127 22.861C5.75097 22.4499 5.70642 21.9975 5.79323 21.561C5.88005 21.1246 6.09434 20.7237 6.40901 20.409C6.72368 20.0943 7.12459 19.8801 7.56105 19.7932C7.9975 19.7064 8.4499 19.751 8.86104 19.9213C9.27217 20.0916 9.62357 20.38 9.87081 20.75C10.118 21.12 10.25 21.555 10.25 22C10.25 22.5967 10.0129 23.169 9.59099 23.591C9.16903 24.0129 8.59674 24.25 8 24.25ZM12.75 15.875V5C12.75 3.74022 12.2496 2.53204 11.3588 1.64124C10.468 0.750445 9.25978 0.25 8 0.25C6.74022 0.25 5.53204 0.750445 4.64124 1.64124C3.75045 2.53204 3.25 3.74022 3.25 5V15.875C1.97322 16.8654 1.03793 18.23 0.574944 19.7781C0.111957 21.3262 0.144434 22.9803 0.667832 24.5091C1.19123 26.0378 2.17937 27.3647 3.49404 28.3042C4.80871 29.2437 6.38415 29.7487 8 29.7487C9.61585 29.7487 11.1913 29.2437 12.506 28.3042C13.8206 27.3647 14.8088 26.0378 15.3322 24.5091C15.8556 22.9803 15.888 21.3262 15.4251 19.7781C14.9621 18.23 14.0268 16.8654 12.75 15.875ZM8 28.25C6.67053 28.2487 5.37611 27.8235 4.30483 27.0362C3.23355 26.2489 2.44122 25.1406 2.043 23.8721C1.64477 22.6037 1.66138 21.2413 2.09042 19.983C2.51947 18.7247 3.33859 17.6359 4.42875 16.875C4.52927 16.805 4.6111 16.7114 4.6671 16.6025C4.72311 16.4935 4.75157 16.3725 4.75 16.25V5C4.75 4.13805 5.09241 3.3114 5.7019 2.7019C6.3114 2.09241 7.13805 1.75 8 1.75C8.86195 1.75 9.6886 2.09241 10.2981 2.7019C10.9076 3.3114 11.25 4.13805 11.25 5V16.25C11.2501 16.3708 11.2793 16.4898 11.3352 16.5969C11.3912 16.704 11.4721 16.7959 11.5713 16.865C12.6658 17.6244 13.489 18.7137 13.9209 19.974C14.3527 21.2342 14.3706 22.5995 13.9718 23.8706C13.5731 25.1418 12.7787 26.2522 11.7044 27.04C10.6301 27.8278 9.33219 28.2518 8 28.25Z" fill="#3B3B55"/>
</svg>
