<svg width="22" height="28" viewBox="0 0 22 28" fill="none" xmlns="http://www.w3.org/2000/svg">
<path d="M16.5662 5.13249C15.0352 3.36397 13.3126 1.77088 11.43 0.382487C11.304 0.294286 11.1538 0.246979 11 0.246979C10.8462 0.246979 10.696 0.294286 10.57 0.382487C8.68742 1.77088 6.96479 3.36397 5.43375 5.13249C2.0425 9.03249 0.25 13.1362 0.25 17C0.25 19.8511 1.38259 22.5854 3.3986 24.6014C5.41462 26.6174 8.14892 27.75 11 27.75C13.8511 27.75 16.5854 26.6174 18.6014 24.6014C20.6174 22.5854 21.75 19.8511 21.75 17C21.75 13.1362 19.9575 9.03249 16.5662 5.13249ZM11 26.25C8.54766 26.247 6.19662 25.2715 4.46255 23.5374C2.72848 21.8034 1.75298 19.4523 1.75 17C1.75 9.54749 9.125 3.38374 11 1.93624C12.875 3.38374 20.25 9.54749 20.25 17C20.247 19.4523 19.2715 21.8034 17.5374 23.5374C15.8034 25.2715 13.4523 26.247 11 26.25ZM17.74 18.125C17.4899 19.5225 16.8177 20.8099 15.8138 21.8138C14.8099 22.8177 13.5225 23.4899 12.125 23.74C12.0836 23.7463 12.0419 23.7496 12 23.75C11.8114 23.7507 11.6295 23.6804 11.4904 23.553C11.3514 23.4257 11.2654 23.2506 11.2497 23.0627C11.2339 22.8748 11.2895 22.6878 11.4054 22.5391C11.5213 22.3903 11.6889 22.2907 11.875 22.26C14.0475 21.895 15.8913 20.05 16.26 17.875C16.2932 17.6787 16.4029 17.5037 16.5651 17.3883C16.6455 17.3312 16.7362 17.2905 16.8323 17.2685C16.9284 17.2465 17.0278 17.2436 17.125 17.26C17.2222 17.2764 17.3152 17.3118 17.3987 17.3642C17.4822 17.4165 17.5545 17.4848 17.6116 17.5651C17.6688 17.6454 17.7095 17.7362 17.7315 17.8323C17.7535 17.9283 17.7564 18.0278 17.74 18.125Z" fill="#3B3B55"/>
</svg>
