<svg width="28" height="22" viewBox="0 0 28 22" fill="none" xmlns="http://www.w3.org/2000/svg">
<path d="M20.75 18C20.75 18.9946 20.3549 19.9484 19.6517 20.6517C18.9484 21.3549 17.9946 21.75 17 21.75C15.3875 21.75 13.83 20.7025 13.2963 19.26C13.2273 19.0734 13.2353 18.867 13.3185 18.6862C13.4017 18.5055 13.5534 18.3652 13.74 18.2962C13.9266 18.2273 14.133 18.2353 14.3138 18.3185C14.4945 18.4017 14.6348 18.5534 14.7038 18.74C15.0163 19.5863 16.025 20.25 17 20.25C17.5967 20.25 18.169 20.0129 18.591 19.591C19.0129 19.169 19.25 18.5967 19.25 18C19.25 17.4033 19.0129 16.831 18.591 16.409C18.169 15.9871 17.5967 15.75 17 15.75H3C2.80109 15.75 2.61032 15.671 2.46967 15.5303C2.32902 15.3897 2.25 15.1989 2.25 15C2.25 14.8011 2.32902 14.6103 2.46967 14.4697C2.61032 14.329 2.80109 14.25 3 14.25H17C17.9946 14.25 18.9484 14.6451 19.6517 15.3483C20.3549 16.0516 20.75 17.0054 20.75 18ZM16.75 4C16.75 3.00544 16.3549 2.05161 15.6517 1.34835C14.9484 0.645088 13.9946 0.25 13 0.25C11.3875 0.25 9.83 1.2975 9.29625 2.74C9.22729 2.92665 9.23531 3.13304 9.31853 3.31378C9.40175 3.49452 9.55335 3.63479 9.74 3.70375C9.92665 3.77271 10.133 3.76469 10.3138 3.68147C10.4945 3.59825 10.6348 3.44665 10.7037 3.26C11.0162 2.41375 12.025 1.75 13 1.75C13.5967 1.75 14.169 1.98705 14.591 2.40901C15.0129 2.83097 15.25 3.40326 15.25 4C15.25 4.59674 15.0129 5.16903 14.591 5.59099C14.169 6.01295 13.5967 6.25 13 6.25H1C0.801088 6.25 0.610322 6.32902 0.46967 6.46967C0.329018 6.61032 0.25 6.80109 0.25 7C0.25 7.19891 0.329018 7.38968 0.46967 7.53033C0.610322 7.67098 0.801088 7.75 1 7.75H13C13.9946 7.75 14.9484 7.35491 15.6517 6.65165C16.3549 5.94839 16.75 4.99456 16.75 4ZM24 4.25C22.3875 4.25 20.83 5.2975 20.2962 6.74C20.2621 6.83242 20.2465 6.93066 20.2503 7.02911C20.2541 7.12755 20.2773 7.22429 20.3185 7.31378C20.3597 7.40327 20.4182 7.48377 20.4905 7.55068C20.5628 7.61759 20.6476 7.66961 20.74 7.70375C20.8324 7.73789 20.9307 7.7535 21.0291 7.74968C21.1276 7.74586 21.2243 7.72268 21.3138 7.68147C21.4033 7.64027 21.4838 7.58184 21.5507 7.50952C21.6176 7.43721 21.6696 7.35242 21.7038 7.26C22.0163 6.41375 23.025 5.75 24 5.75C24.5967 5.75 25.169 5.98705 25.591 6.40901C26.0129 6.83097 26.25 7.40326 26.25 8C26.25 8.59674 26.0129 9.16903 25.591 9.59099C25.169 10.0129 24.5967 10.25 24 10.25H2C1.80109 10.25 1.61032 10.329 1.46967 10.4697C1.32902 10.6103 1.25 10.8011 1.25 11C1.25 11.1989 1.32902 11.3897 1.46967 11.5303C1.61032 11.671 1.80109 11.75 2 11.75H24C24.9946 11.75 25.9484 11.3549 26.6517 10.6517C27.3549 9.94839 27.75 8.99456 27.75 8C27.75 7.00544 27.3549 6.05161 26.6517 5.34835C25.9484 4.64509 24.9946 4.25 24 4.25Z" fill="#3B3B55"/>
</svg>
